<svg xmlns="http://www.w3.org/2000/svg" width="350.26901" height="350.772" viewBox="0 0 92.675341 92.808428"><path fill="#FFF" stroke="red" stroke-width="16.9908" d="M84.059 43.45C82.456 22.6 64.265 6.999 43.38 8.609 22.556 10.28 6.976 28.535 8.612 49.417 10.276 70.239 28.467 85.81 49.322 84.2c20.854-1.67 36.404-19.957 34.737-40.75"/><path fill="#FFF" d="M84.234 43.5C82.631 22.635 64.43 7.024 43.531 8.636 22.693 10.308 7.104 28.576 8.741 49.47c1.665 20.835 19.867 36.416 40.734 34.804 20.868-1.671 36.428-19.97 34.76-40.774"/><path d="M57.569 69.907c-4.35-1.102-7.671-4.282-8.727-8.356-.177-.682-.321-1.48-.321-1.773v-.533h8.146l.135.802c.075.441.395 1.21.711 1.71.793 1.25 1.972 1.801 3.866 1.807 1.823.006 2.902-.455 4.086-1.745 1.67-1.821 2.47-4.374 2.807-8.404l.145-2.045-.856.964c-1.432 1.612-4.559 2.819-7.279 2.81-4.925-.018-8.959-2.504-11.035-6.802-1.299-2.689-1.625-4.534-1.489-8.414.129-3.654.548-5.485 1.812-7.915 2.085-4.007 5.587-6.248 10.491-6.712 8.403-.794 13.678 3.564 15.585 12.875.911 4.449 1.125 11.668.48 16.248C75 62.429 71.42 67.78 65.909 69.694c-1.868.648-6.184.758-8.34.213zm6.286-21.827c1.466-.435 3.03-1.984 3.708-3.671.437-1.09.49-1.53.484-4.085-.005-2.497-.067-3.015-.477-4.046-.687-1.732-1.597-2.81-2.96-3.507-1.006-.514-1.408-.602-2.753-.598-1.88.005-3.294.611-4.32 1.854-1.207 1.465-1.524 2.675-1.538 5.888-.01 2.422.059 3.089.448 4.327 1.05 3.339 3.979 4.856 7.408 3.838zm-38.54 6.464V39.615H15.28c-.038-1.932.038-4.087 0-6.019h1.766c2.582-.223 3.662-.488 4.79-.924 2.513-.969 4.324-2.988 4.766-5.314l.237-1.25h6.657v43.364h-8.183z"/></svg>